<?xml version="1.0" encoding="utf-8"?>
<!-- Svg Vector Icons : http://www.onlinewebfonts.com/icon -->
<!DOCTYPE svg PUBLIC "-//W3C//DTD SVG 1.1//EN" "http://www.w3.org/Graphics/SVG/1.1/DTD/svg11.dtd">
<svg version="1.1" xmlns="http://www.w3.org/2000/svg" xmlns:xlink="http://www.w3.org/1999/xlink" x="0px" y="0px" viewBox="0 0 1000 1000" enable-background="new 0 0 1000 1000" xml:space="preserve">
<metadata> Svg Vector Icons : http://www.onlinewebfonts.com/icon </metadata>
<g><g transform="translate(0.000000,512.000000) scale(0.100000,-0.100000)"><path d="M4222.7,5006.4c-634.7-100-1150.1-511.6-1290.5-1032.8c-36.5-142.3-36.5-427,0-569.3c84.6-315.4,290.4-578.9,609.7-780.9c67.3-42.3,142.3-90.4,167.3-107.7c167.3-119.2-169.2-453.9-769.3-767.4l-207.7-107.7h111.5c163.5,0,452,51.9,642.4,115.4c292.3,98.1,463.5,200,752,448.1l167.3,142.3l211.6,11.5c273.1,15.4,482.7,69.2,721.2,186.6c319.3,153.9,552,380.8,686.6,665.5c182.7,390.4,130.8,821.2-144.2,1194.4c-184.6,248.1-544.3,473.1-898.2,563.5C4795.8,5016.1,4407.3,5035.3,4222.7,5006.4z"/><path d="M6521,4258.3c-46.2-7.7-65.4-21.2-61.6-40.4c3.8-15.4,25-94.2,46.2-173.1c51.9-201.9,51.9-513.5-1.9-721.2c-80.8-307.7-238.5-571.2-480.8-803.9l-134.6-130.8l157.7-76.9c207.7-98.1,419.3-151.9,667.4-165.4c219.3-11.5,230.8-15.4,400-153.9c57.7-46.2,140.4-107.7,184.6-134.6c178.9-115.4,532.8-217.3,738.6-217.3l90.4,1.9l-134.6,71.2c-186.6,100-294.3,176.9-388.5,278.9c-151.9,163.5-138.5,232.7,67.3,340.4c427,221.2,638.5,546.2,613.5,938.6c-7.7,136.6-21.2,184.6-80.8,305.8c-152,307.7-463.5,530.8-904,652C7174.9,4264,6644.1,4283.3,6521,4258.3z"/><path d="M2164.7,840.6c-577-128.9-1017.4-578.9-1117.4-1140.5c-51.9-296.2-17.3-528.9,119.2-809.7c76.9-157.7,115.4-207.7,282.7-375c105.8-103.8,180.8-194.2,169.3-198.1c-13.5-3.8-90.4-57.7-171.2-117.3c-480.8-359.7-829-963.6-946.3-1646.4c-44.2-259.6-50-732.8-13.5-971.3l23.1-144.2l211.6-42.3c923.2-186.6,1948.3-226.9,2856.1-109.6c350,44.2,873.2,142.3,886.6,165.4c34.6,55.8,59.6,427,50,707.8c-13.5,338.5-55.8,571.2-159.6,867.4c-109.6,317.4-209.6,500.1-423.1,779c-157.7,203.9-265.4,300-580.8,519.3c-3.8,1.9,73.1,84.6,173.1,184.6c334.7,332.7,453.9,650.1,415.4,1102.1c-46.2,538.5-459.7,1023.2-1025.1,1202.1C2735.9,871.3,2359,884.8,2164.7,840.6z"/><path d="M7694.2,857.9c-215.4-36.5-471.2-171.2-634.7-332.7c-215.4-217.3-327-484.7-327-788.6c0-294.3,100-523.1,330.8-757.8c82.7-82.7,150-152,150-155.8c0-1.9-48.1-36.5-105.8-76.9c-155.8-105.8-409.6-384.7-513.5-559.7c-265.4-452-378.9-1034.8-302-1554l21.2-142.3l215.4-40.4c955.9-180.8,1836.8-178.9,2765.7,1.9c173.1,32.7,205.8,46.2,217.3,80.8c25,84.6,34.6,623.1,11.5,782.8c-84.6,598.1-403.9,1157.8-815.5,1430.9c-59.6,40.4-109.6,73.1-109.6,75c0,1.9,71.2,76.9,159.6,165.4C8998.2-767.3,9079-573.1,9079-248c0,269.3-78.8,482.8-263.5,711.6c-134.6,165.4-396.2,325-625.1,378.9C8078.9,869.4,7807.7,877.1,7694.2,857.9z"/></g></g>
</svg>